<svg xmlns="http://www.w3.org/2000/svg" viewBox="0 0 2500 2500"><defs><style>.cls-1{fill:blue;}.cls-2,.cls-4,.cls-5{fill:none;}.cls-2,.cls-3,.cls-4,.cls-5{stroke:#fff;stroke-miterlimit:10;}.cls-2{stroke-width:17.01px;}.cls-3{fill:#fff;}.cls-4{stroke-width:138.9px;}.cls-5{stroke-width:198.43px;}</style></defs><g id="background"><rect class="cls-1" x="-5.77" y="0.5" width="2499" height="2499" rx="143.33"/><path d="M2349.89,1a142.83,142.83,0,0,1,142.84,142.83V2356.17A142.83,142.83,0,0,1,2349.89,2499H137.56A142.82,142.82,0,0,1-5.27,2356.17V143.83A142.82,142.82,0,0,1,137.56,1H2349.89m0-1H137.56A143.83,143.83,0,0,0-6.27,143.83V2356.17A143.83,143.83,0,0,0,137.56,2500H2349.89a143.84,143.84,0,0,0,143.84-143.83V143.83A143.84,143.84,0,0,0,2349.89,0Z"/></g><g id="Layer_1" data-name="Layer 1"><polygon class="cls-2" points="1074.73 1142.1 1251.68 911.89 1335.7 1047.6 1074.73 1142.1"/><rect class="cls-3" x="1058.5" y="1082.21" width="180.22" height="4.58" transform="translate(2720.63 1240.12) rotate(142.3)"/><circle class="cls-3" cx="1223.63" cy="1026.51" r="14.72"/><path class="cls-3" d="M2204.36,523.22,1358,1043.39a14.93,14.93,0,0,1-20.5-4.86l-78-125.76a14.94,14.94,0,0,1,4.86-20.58l846.17-521.54a14.93,14.93,0,0,1,20.55,4.9l78.14,127.13A14.94,14.94,0,0,1,2204.36,523.22Z"/><polygon class="cls-3" points="1724.02 818.76 1348.38 1051.68 1251.94 897.33 1630.24 666.17 1724.02 818.76"/><rect class="cls-4" x="165.45" y="163.79" width="2156.55" height="2156.55" rx="137.33"/><path class="cls-5" d="M801.1,368.43C705.72,470.85,606.55,637.64,605.67,747c-.91,111.93,174.06,247.23,192,413.33C823,1394.77,557,1479.5,552.33,1683c-2.22,96.38,82.67,208,248.77,367.48"/></g></svg>