<svg id="Layer_1" data-name="Layer 1" xmlns="http://www.w3.org/2000/svg" xmlns:xlink="http://www.w3.org/1999/xlink" viewBox="0 0 327.75 222.8"><defs><style>.cls-1,.cls-9{fill:none;}.cls-2{isolation:isolate;}.cls-3{clip-path:url(#clip-path);}.cls-4{clip-path:url(#clip-path-2);}.cls-5,.cls-8{fill:blue;}.cls-6{clip-path:url(#clip-path-3);}.cls-7{clip-path:url(#clip-path-4);}.cls-8{stroke:blue;}.cls-8,.cls-9{stroke-miterlimit:10;}.cls-9{stroke:#000;}</style><clipPath id="clip-path" transform="translate(-37.42 -148.47)"><polygon class="cls-1" points="125.78 248.91 10.76 167 281.22 148.09 396.23 229.99 125.78 248.91"/></clipPath><clipPath id="clip-path-2" transform="translate(-37.42 -148.47)"><polyline class="cls-1" points="125.78 248.91 37.72 175.02 281.22 148.09 369.28 221.98 125.78 248.91"/></clipPath><clipPath id="clip-path-3" transform="translate(-37.42 -148.47)"><polygon class="cls-1" points="166.53 216.56 129.25 190.01 262.96 180.66 300.24 207.21 166.53 216.56"/></clipPath><clipPath id="clip-path-4" transform="translate(-37.42 -148.47)"><polyline class="cls-1" points="166.53 216.56 139.96 194.27 262.96 180.66 289.53 202.96 166.53 216.56"/></clipPath></defs><g class="cls-2"><g class="cls-3"><g class="cls-4"><path class="cls-5" d="M133.3,243.61l-78.67-66,219-24.22C300,176.1,338,209.16,349.17,219.74L133.3,243.61m144.27-95.1-.38,0-117.72,13-117.6,13c-2.23.25-3.38,1-2.62,1.74L81.75,212l42.44,35.61c.81.68,3.08,1.07,5.24.92l.39,0,117.71-13,117.6-13c2.29-.25-82.32-73-82.32-73-.81-.69-3.09-1.07-5.24-.92" transform="translate(-37.42 -148.47)"/></g></g></g><g class="cls-2"><g class="cls-6"><g class="cls-7"><path class="cls-5" d="M170.28,213.92l-21.87-18.36L259.2,183.31l21.88,18.35-110.8,12.26M263,180.66,140,194.27l26.57,22.29,123-13.6L263,180.66" transform="translate(-37.42 -148.47)"/></g></g></g><path class="cls-8" d="M44,320H38l1.5-143.5L44,176Z" transform="translate(-37.42 -148.47)"/><path class="cls-8" d="M125.63,370.66h0l.1.06h0L364.5,352.5c0-2.16,0-4.32,0-6.48L125.07,363.77C125.3,366.65,125.62,370.64,125.63,370.66Z" transform="translate(-37.42 -148.47)"/><rect class="cls-8" x="87.58" y="99.53" width="6" height="118"/><path class="cls-8" d="M125.83,370.76H126l.24,0-.13,0,.25,0h.12l3.33-5.77L41.6,314.05l-3.5,6.06,87.73,50.65Z" transform="translate(-37.42 -148.47)"/><rect class="cls-8" x="321.08" y="73.03" width="6" height="131" rx="1.95"/><path class="cls-9" d="M39.5,176.5" transform="translate(-37.42 -148.47)"/></svg>