<svg xmlns="http://www.w3.org/2000/svg" viewBox="0 0 2500 2500"><defs><style>.cls-1{fill:blue;}.cls-2,.cls-3,.cls-5{fill:none;}.cls-2,.cls-3,.cls-4,.cls-5{stroke:#fff;stroke-miterlimit:10;}.cls-2{stroke-width:90.71px;}.cls-3{stroke-width:17.01px;}.cls-4{fill:#fff;}.cls-5{stroke-width:138.9px;}</style></defs><g id="background"><rect class="cls-1" x="0.5" y="0.5" width="2499" height="2499"/><path d="M2499,1V2499H1V1H2499m1-1H0V2500H2500V0Z"/></g><g id="Layer_1" data-name="Layer 1"><path class="cls-2" d="M758.16,561.44c34,21.85,70.55,53.73,72.79,94.42,3.52,63.92-81.11,88-86.56,151.47C737.6,886.48,864.8,901.12,907.67,1006c59.13,144.72-79.78,369.38-204.59,487.86-61.25,58.15-97.33,70-116.06,123.93-36.93,106.22,43.67,231.43,120,322.62"/><polygon class="cls-3" points="1008.85 1347.43 1185.8 1117.22 1269.82 1252.93 1008.85 1347.43"/><rect class="cls-4" x="992.62" y="1287.54" width="180.22" height="4.58" transform="translate(2728.19 1648.21) rotate(142.3)"/><circle class="cls-4" cx="1157.75" cy="1231.85" r="14.72"/><path class="cls-4" d="M2138.48,728.55l-846.34,520.17a14.93,14.93,0,0,1-20.51-4.85l-78-125.77a14.93,14.93,0,0,1,4.86-20.58L2044.69,576a14.93,14.93,0,0,1,20.55,4.89L2143.38,708A14.93,14.93,0,0,1,2138.48,728.55Z"/><polygon class="cls-4" points="1658.14 1024.1 1282.5 1257.01 1186.06 1102.67 1564.36 871.51 1658.14 1024.1"/><rect class="cls-5" x="391.9" y="307" width="1829.33" height="1829.33" rx="137.33"/></g></svg>